<svg id="HBF_08_Logo_copy" data-name="HBF 08 Logo copy" xmlns="http://www.w3.org/2000/svg" viewBox="0 0 315.21 334.21"><defs><style>.cls-1{fill:#fdfdfd;}.cls-2,.cls-3,.cls-4{fill:#fff;}.cls-3{stroke:#fff;stroke-miterlimit:10;stroke-width:2px;}.cls-4{font-size:30px;font-family:Corbel;}</style></defs><title>HBF08 Logo FINAL_WO</title><polygon class="cls-1" points="0.2 112.41 0.2 61.33 45.63 61.33 45.63 86.97 80.66 86.97 80.66 61.33 126.85 61.33 126.85 86.97 160.61 86.97 160.61 61.33 201.22 61.33 201.22 112.24 30.4 210.04 30.4 126.89 0.2 112.41"/><polygon class="cls-2" points="30.4 306.78 47.32 306.78 47.32 238.74 201.22 149.9 201.22 130.44 30.4 228.76 30.4 306.78"/><polygon class="cls-2" points="63.91 306.78 80.66 306.78 80.66 258.2 200.97 189.21 200.97 169.6 63.91 248.22 63.91 306.78"/><polygon class="cls-2" points="201.22 208.11 97.16 267.68 97.16 306.78 113.15 306.78 113.15 278.74 201.22 227.52 201.22 208.11"/><path class="cls-2" d="M33,316.83v6.63h4.1v-6.63h3.52v17.39H37.13v-7.74H33v7.74H29.51V316.83Z" transform="translate(0 -0.26)"/><path class="cls-2" d="M43,321.87a8.15,8.15,0,0,1,.81-2.86,4.52,4.52,0,0,1,1.79-1.86,6.26,6.26,0,0,1,3.14-.67,6.28,6.28,0,0,1,3.14.67A4.52,4.52,0,0,1,53.68,319a8.15,8.15,0,0,1,.8,2.86,31.68,31.68,0,0,1,.19,3.64,31.37,31.37,0,0,1-.19,3.65,8,8,0,0,1-.8,2.85,4.22,4.22,0,0,1-1.79,1.83,6.65,6.65,0,0,1-3.14.63,6.63,6.63,0,0,1-3.14-.63A4.22,4.22,0,0,1,43.82,332a8,8,0,0,1-.81-2.85,33.89,33.89,0,0,1-.18-3.65A34.23,34.23,0,0,1,43,321.87Zm3.43,6.62a8,8,0,0,0,.34,2,2.23,2.23,0,0,0,.72,1.12,2,2,0,0,0,1.25.36,2,2,0,0,0,1.24-.36,2.18,2.18,0,0,0,.73-1.12,8.49,8.49,0,0,0,.34-2c.06-.82.08-1.81.08-3s0-2.16-.08-3a8.58,8.58,0,0,0-.34-2A2.24,2.24,0,0,0,50,319.4a2,2,0,0,0-1.24-.35,2.08,2.08,0,0,0-1.25.35,2.29,2.29,0,0,0-.72,1.14,8.08,8.08,0,0,0-.34,2c-.06.82-.09,1.81-.09,3S46.38,327.67,46.44,328.49Z" transform="translate(0 -0.26)"/><path class="cls-2" d="M62.15,316.83l2.48,12.27h.05l2.51-12.27h5.18v17.39H69.16V320.34h0L66,334.22H63.29L60.2,320.34h-.05v13.88H57V316.83Z" transform="translate(0 -0.26)"/><path class="cls-2" d="M84.74,319.72H78.53v4.06h5.84v2.89H78.53v4.66H85v2.89H75V316.83h9.74Z" transform="translate(0 -0.26)"/><path class="cls-2" d="M98.71,316.83a8.37,8.37,0,0,1,2,.22,4.14,4.14,0,0,1,1.57.73,3.34,3.34,0,0,1,1,1.37,5.15,5.15,0,0,1,.37,2.09,4.37,4.37,0,0,1-.66,2.43,3.31,3.31,0,0,1-2,1.37v0a3.48,3.48,0,0,1,2.3,1.24,4.35,4.35,0,0,1,.85,2.8,7,7,0,0,1-.27,1.95,4,4,0,0,1-.92,1.62,4.51,4.51,0,0,1-1.68,1.1,6.88,6.88,0,0,1-2.57.42H92.82V316.83ZM97.34,324a3.39,3.39,0,0,0,2.13-.53,2.11,2.11,0,0,0,.68-1.77,2.21,2.21,0,0,0-.61-1.76,3,3,0,0,0-1.93-.51H96.34V324Zm.36,7.68a3.45,3.45,0,0,0,2-.56,2.41,2.41,0,0,0,.78-2.07,3.28,3.28,0,0,0-.21-1.26,2.17,2.17,0,0,0-.56-.8,2.1,2.1,0,0,0-.84-.43,4.49,4.49,0,0,0-1.07-.12H96.34v5.24Z" transform="translate(0 -0.26)"/><path class="cls-2" d="M109.79,329a7.39,7.39,0,0,0,.08,1.2,2.66,2.66,0,0,0,.32,1,1.59,1.59,0,0,0,.63.63,2,2,0,0,0,1,.24,1.94,1.94,0,0,0,1-.24,1.7,1.7,0,0,0,.62-.63,2.66,2.66,0,0,0,.31-1,7.33,7.33,0,0,0,.09-1.2V316.83h3.52V329a6.94,6.94,0,0,1-.46,2.73,4.34,4.34,0,0,1-1.25,1.72,4.2,4.2,0,0,1-1.78.85,9.47,9.47,0,0,1-2.08.22,10.77,10.77,0,0,1-2.07-.19,4.39,4.39,0,0,1-1.79-.79,4.11,4.11,0,0,1-1.24-1.7,7.31,7.31,0,0,1-.47-2.84V316.83h3.53Z" transform="translate(0 -0.26)"/><path class="cls-2" d="M119.91,316.83h3.52v17.39h-3.52Z" transform="translate(0 -0.26)"/><path class="cls-2" d="M126.13,316.83h3.52v14.5h6.21v2.89h-9.73Z" transform="translate(0 -0.26)"/><path class="cls-2" d="M143.46,316.83a6.26,6.26,0,0,1,2.95.6,4.25,4.25,0,0,1,1.74,1.7,7.76,7.76,0,0,1,.84,2.67,26.14,26.14,0,0,1,.22,3.48,25.46,25.46,0,0,1-.28,4,7.56,7.56,0,0,1-1,2.79,4.21,4.21,0,0,1-1.82,1.63,6.79,6.79,0,0,1-2.9.54h-5.52V316.83Zm-.67,14.82a3,3,0,0,0,1.47-.32,2.17,2.17,0,0,0,.88-1.05,6.33,6.33,0,0,0,.44-1.93c.07-.79.1-1.79.1-3q0-1.5-.09-2.61a6.78,6.78,0,0,0-.4-1.87,2.34,2.34,0,0,0-.89-1.12,3,3,0,0,0-1.59-.38h-1.47v12.25Z" transform="translate(0 -0.26)"/><path class="cls-2" d="M161.37,319.72h-6.21v4.06H161v2.89h-5.85v4.66h6.46v2.89h-10V316.83h9.73Z" transform="translate(0 -0.26)"/><path class="cls-2" d="M170,316.83a4.92,4.92,0,0,1,3.42,1.11,4.33,4.33,0,0,1,1.22,3.37,5.21,5.21,0,0,1-.71,2.85,3.3,3.3,0,0,1-2.19,1.43v0a3.13,3.13,0,0,1,1.92.86,3.56,3.56,0,0,1,.76,2.11c0,.33,0,.68.07,1.06s0,.81.05,1.28c0,.93.09,1.63.16,2.12a1.36,1.36,0,0,0,.64,1v.16h-3.81a2,2,0,0,1-.35-.84,7.92,7.92,0,0,1-.09-1l-.1-3.34a2.8,2.8,0,0,0-.52-1.61,1.88,1.88,0,0,0-1.56-.58H167v7.36h-3.52V316.83Zm-1.5,7.58a2.89,2.89,0,0,0,2-.59,2.54,2.54,0,0,0,.69-2,2.15,2.15,0,0,0-2.46-2.41H167v5Z" transform="translate(0 -0.26)"/><path class="cls-2" d="M180,329.28a6.23,6.23,0,0,0,.09,1.11,2,2,0,0,0,.37.85,1.77,1.77,0,0,0,.71.53,2.82,2.82,0,0,0,1.13.2,2.18,2.18,0,0,0,1.43-.53,2,2,0,0,0,.64-1.62,3.07,3.07,0,0,0-.15-1,2,2,0,0,0-.53-.76,3.73,3.73,0,0,0-.95-.63q-.6-.27-1.47-.57a12.53,12.53,0,0,1-2-.85,5.66,5.66,0,0,1-1.42-1.08,4,4,0,0,1-.84-1.44,6.3,6.3,0,0,1-.26-1.89,4.86,4.86,0,0,1,1.43-3.84,5.75,5.75,0,0,1,4-1.27,8.62,8.62,0,0,1,2.15.26,4.35,4.35,0,0,1,1.7.82,3.89,3.89,0,0,1,1.12,1.46,5.09,5.09,0,0,1,.4,2.13v.48h-3.36a3.44,3.44,0,0,0-.44-1.91,1.58,1.58,0,0,0-1.45-.67,2.43,2.43,0,0,0-1,.17,1.75,1.75,0,0,0-.62.45,1.51,1.51,0,0,0-.31.65,3.08,3.08,0,0,0-.09.75,2.52,2.52,0,0,0,.34,1.36,3.11,3.11,0,0,0,1.45,1l2.69,1.17a8.38,8.38,0,0,1,1.63.91,4.58,4.58,0,0,1,1,1,3.53,3.53,0,0,1,.52,1.21,6.58,6.58,0,0,1,.14,1.46,4.81,4.81,0,0,1-1.59,4,7,7,0,0,1-4.44,1.25c-2,0-3.39-.43-4.24-1.29a5,5,0,0,1-1.28-3.7v-.71H180Z" transform="translate(0 -0.26)"/><path class="cls-2" d="M205.62,316.83v2.89h-6.21v4.06h5.85v2.89h-5.85v7.55h-3.52V316.83Z" transform="translate(0 -0.26)"/><path class="cls-2" d="M217,319.72h-6.22v4.06h5.85v2.89h-5.85v4.66h6.46v2.89h-10V316.83H217Z" transform="translate(0 -0.26)"/><path class="cls-2" d="M225.07,316.83a6.19,6.19,0,0,1,2.94.6,4.13,4.13,0,0,1,1.74,1.7,7.36,7.36,0,0,1,.84,2.67,24.56,24.56,0,0,1,.22,3.48,24.3,24.3,0,0,1-.28,4,7.56,7.56,0,0,1-1,2.79,4.21,4.21,0,0,1-1.82,1.63,6.82,6.82,0,0,1-2.9.54h-5.53V316.83Zm-.68,14.82a3,3,0,0,0,1.48-.32,2.22,2.22,0,0,0,.88-1.05,6.36,6.36,0,0,0,.43-1.93c.07-.79.11-1.79.11-3,0-1,0-1.87-.1-2.61a6.12,6.12,0,0,0-.4-1.87,2.29,2.29,0,0,0-.89-1.12,2.91,2.91,0,0,0-1.58-.38h-1.47v12.25Z" transform="translate(0 -0.26)"/><path class="cls-2" d="M243,319.72h-6.21v4.06h5.84v2.89h-5.84v4.66h6.45v2.89h-10V316.83H243Z" transform="translate(0 -0.26)"/><path class="cls-2" d="M251.58,316.83a4.89,4.89,0,0,1,3.42,1.11,4.29,4.29,0,0,1,1.22,3.37,5.21,5.21,0,0,1-.7,2.85,3.3,3.3,0,0,1-2.19,1.43v0a3.19,3.19,0,0,1,1.92.86,3.63,3.63,0,0,1,.75,2.11c0,.33.06.68.07,1.06s0,.81.06,1.28a17.75,17.75,0,0,0,.16,2.12,1.35,1.35,0,0,0,.63,1v.16h-3.81a1.94,1.94,0,0,1-.34-.84c-.05-.32-.08-.65-.1-1l-.1-3.34a2.73,2.73,0,0,0-.51-1.61,1.89,1.89,0,0,0-1.57-.58h-1.88v7.36h-3.52V316.83Zm-1.5,7.58a2.89,2.89,0,0,0,2-.59,2.54,2.54,0,0,0,.69-2,2.15,2.15,0,0,0-2.45-2.41h-1.67v5Z" transform="translate(0 -0.26)"/><path class="cls-2" d="M266.49,316.83l4.61,17.39h-3.66l-.8-3.68H262l-.81,3.68h-3.65l4.61-17.39ZM266,327.65l-1.68-7.8h-.05l-1.68,7.8Z" transform="translate(0 -0.26)"/><path class="cls-2" d="M281.3,319.72h-3.81v14.5H274v-14.5h-3.8v-2.89H281.3Z" transform="translate(0 -0.26)"/><path class="cls-2" d="M283.09,316.83h3.53v17.39h-3.53Z" transform="translate(0 -0.26)"/><path class="cls-2" d="M289.15,321.87A8.15,8.15,0,0,1,290,319a4.52,4.52,0,0,1,1.79-1.86,7.69,7.69,0,0,1,6.28,0,4.52,4.52,0,0,1,1.79,1.86,8.36,8.36,0,0,1,.81,2.86,34.23,34.23,0,0,1,.18,3.64,33.89,33.89,0,0,1-.18,3.65,8.24,8.24,0,0,1-.81,2.85,4.22,4.22,0,0,1-1.79,1.83,8.14,8.14,0,0,1-6.28,0A4.22,4.22,0,0,1,290,332a8,8,0,0,1-.8-2.85,35.06,35.06,0,0,1,0-7.29Zm3.42,6.62a8.49,8.49,0,0,0,.34,2,2.23,2.23,0,0,0,.72,1.12,2.35,2.35,0,0,0,2.5,0,2.23,2.23,0,0,0,.72-1.12,8,8,0,0,0,.34-2c.06-.82.09-1.81.09-3s0-2.16-.09-3a8.08,8.08,0,0,0-.34-2,2.29,2.29,0,0,0-.72-1.14,2.41,2.41,0,0,0-2.5,0,2.29,2.29,0,0,0-.72,1.14,8.58,8.58,0,0,0-.34,2c-.06.82-.08,1.81-.08,3S292.51,327.67,292.57,328.49Z" transform="translate(0 -0.26)"/><path class="cls-2" d="M311.26,328.74h.07V316.83h3.2v17.39h-4L306.27,322h0v12.18H303V316.83h4Z" transform="translate(0 -0.26)"/><path class="cls-2" d="M218.61,304.93V279.4h33.55V255.48H218.61V230H315.2v25.53H276.92V279.4H315.2v25.53Z" transform="translate(0 -0.26)"/><path class="cls-2" d="M218.61,214.61V169.16c0-21.85,14.34-26.49,24.22-26.49s15,4.06,18.94,10.22c3-7.43,9.87-14.41,24.08-14.41,19.34,0,29.35,14.41,29.35,29.06v47.07ZM256.22,189V175.56c0-5.35-1.76-8.72-8-8.72-4.87,0-6.63,3.49-6.63,8.72V189Zm36,0V174c0-5.34-1.76-10-9.2-10-5.69,0-8.8,2.91-8.8,8.95v16Z" transform="translate(0 -0.26)"/><path class="cls-2" d="M218.61,125.46V61.92h24.76v38.22h12V67.33h23v32.81H315.2v25.32Z" transform="translate(0 -0.26)"/><line class="cls-3" y1="43.33" x2="315.2" y2="43.8"/><text class="cls-4" transform="translate(0.2 24.8)">A member of</text></svg>